<?xml version="1.0" standalone="no"?>
<!DOCTYPE svg PUBLIC "-//W3C//DTD SVG 20010904//EN"
 "http://www.w3.org/TR/2001/REC-SVG-20010904/DTD/svg10.dtd">
<svg version="1.0" xmlns="http://www.w3.org/2000/svg"
 width="512.000000pt" height="512.000000pt" viewBox="0 0 512.000000 512.000000"
 preserveAspectRatio="xMidYMid meet">

<g transform="translate(0.000000,512.000000) scale(0.100000,-0.100000)"
fill="#000000" stroke="none">
<path d="M2190 3919 c-322 -7 -389 -15 -526 -68 -100 -39 -173 -87 -249 -166
-98 -102 -155 -215 -192 -379 -34 -155 -34 -1328 1 -1491 33 -160 93 -278 191
-380 105 -108 235 -177 399 -211 163 -34 1330 -34 1491 0 160 33 278 93 380
191 108 105 177 235 211 399 34 163 34 1330 0 1491 -35 167 -94 282 -202 389
-145 145 -316 211 -579 221 -214 9 -634 11 -925 4z m921 -249 c148 -11 202
-22 285 -61 174 -81 254 -227 274 -497 13 -177 13 -927 0 -1104 -15 -213 -64
-337 -167 -428 -137 -120 -267 -139 -943 -140 -418 0 -642 11 -733 35 -179 47
-289 150 -343 321 -34 107 -44 278 -43 769 0 420 9 633 30 721 34 143 133 270
251 323 87 39 146 52 268 61 155 10 975 11 1121 0z"/>
<path d="M3206 3427 c-101 -58 -103 -216 -4 -277 43 -26 121 -26 168 -1 75 39
104 153 57 222 -53 79 -142 101 -221 56z"/>
<path d="M2415 3246 c-142 -34 -251 -93 -349 -192 -78 -77 -135 -169 -173
-279 -25 -72 -27 -93 -27 -215 0 -122 2 -143 28 -215 77 -222 229 -374 451
-451 72 -26 93 -28 215 -28 122 0 143 2 215 28 227 78 387 242 457 466 19 63
23 96 22 205 0 112 -4 141 -26 208 -72 217 -241 385 -455 454 -97 31 -266 40
-358 19z m298 -259 c184 -67 297 -230 297 -427 0 -197 -113 -360 -297 -427
-90 -32 -216 -32 -306 0 -183 67 -297 231 -297 427 0 195 113 359 294 426 87
33 220 33 309 1z"/>
</g>
</svg>
